<svg xmlns="http://www.w3.org/2000/svg" width="1800" height="1220" viewBox="0 0 1800 1220">
  <defs>
    <linearGradient id="topBar" x1="0%" y1="0%" x2="100%" y2="0%">
      <stop offset="0%" stop-color="#184f9e"/>
      <stop offset="48%" stop-color="#1f5fae"/>
      <stop offset="100%" stop-color="#2ca9c9"/>
    </linearGradient>
    <linearGradient id="leftBar" x1="0%" y1="0%" x2="0%" y2="100%">
      <stop offset="0%" stop-color="#1d5da8"/>
      <stop offset="100%" stop-color="#0f4d92"/>
    </linearGradient>
    <filter id="shadow" x="-20%" y="-20%" width="140%" height="140%">
      <feDropShadow dx="0" dy="8" stdDeviation="10" flood-color="#9fb6c8" flood-opacity="0.35"/>
    </filter>
    <marker id="arrow" markerWidth="10" markerHeight="10" refX="8" refY="5" orient="auto">
      <path d="M0,0 L10,5 L0,10 z" fill="#36a8c4"/>
    </marker>
    <style>
      .bg { fill: #f3f7fb; }
      .panel { fill: #ffffff; stroke: #cfd9e6; stroke-width: 2; }
      .frame { fill: #fbfdff; stroke: #d7e1eb; stroke-width: 2; }
      .row { fill: #ffffff; stroke: #38a9c6; stroke-width: 2; }
      .group { fill: #fbfeff; stroke: #38a9c6; stroke-width: 2; }
      .box { fill: #ffffff; stroke: #2ca9c9; stroke-width: 2; }
      .box2 { fill: #f9fcff; stroke: #2ca9c9; stroke-width: 2; }
      .darkBand { fill: #1e4f96; }
      .line { stroke: #36a8c4; stroke-width: 3; fill: none; marker-end: url(#arrow); }
      .title { font: 700 28px "Microsoft YaHei", "PingFang SC", Arial, sans-serif; fill: #ffffff; }
      .layer { font: 700 18px "Microsoft YaHei", "PingFang SC", Arial, sans-serif; fill: #ffffff; }
      .h1 { font: 700 18px "Microsoft YaHei", "PingFang SC", Arial, sans-serif; fill: #111827; }
      .h2 { font: 700 16px "Microsoft YaHei", "PingFang SC", Arial, sans-serif; fill: #111827; }
      .body { font: 600 14px "Microsoft YaHei", "PingFang SC", Arial, sans-serif; fill: #1f2937; }
      .small { font: 500 13px "Microsoft YaHei", "PingFang SC", Arial, sans-serif; fill: #334155; }
      .tiny { font: 500 12px "Microsoft YaHei", "PingFang SC", Arial, sans-serif; fill: #475569; }
    </style>
  </defs>

  <rect class="bg" x="0" y="0" width="1800" height="1220"/>

  <rect class="panel" x="70" y="58" width="1660" height="1090" rx="42" filter="url(#shadow)"/>
  <rect x="118" y="76" width="1564" height="74" rx="0" fill="url(#topBar)"/>
  <text class="title" x="170" y="122">冀北风光储数字孪生基座业务架构图</text>

  <rect class="frame" x="118" y="150" width="1564" height="968"/>

  <rect x="130" y="184" width="108" height="92" rx="10" fill="url(#leftBar)" filter="url(#shadow)"/>
  <text class="layer" x="184" y="220" text-anchor="middle">展示层</text>
  <text class="layer" x="184" y="244" text-anchor="middle">Display</text>

  <rect x="130" y="302" width="108" height="178" rx="10" fill="url(#leftBar)" filter="url(#shadow)"/>
  <text class="layer" x="184" y="381" text-anchor="middle">业务层</text>
  <text class="layer" x="184" y="405" text-anchor="middle">Business</text>

  <rect x="130" y="502" width="108" height="286" rx="10" fill="url(#leftBar)" filter="url(#shadow)"/>
  <text class="layer" x="184" y="635" text-anchor="middle">平台层</text>
  <text class="layer" x="184" y="659" text-anchor="middle">Platform</text>

  <rect x="130" y="812" width="108" height="282" rx="10" fill="url(#leftBar)" filter="url(#shadow)"/>
  <text class="layer" x="184" y="943" text-anchor="middle">采集层</text>
  <text class="layer" x="184" y="967" text-anchor="middle">Collection</text>

  <rect class="row" x="286" y="184" width="1338" height="92" rx="12"/>
  <rect class="box" x="382" y="199" width="470" height="62" rx="8"/>
  <text class="h2" x="617" y="235" text-anchor="middle">三维引擎场景</text>
  <text class="small" x="617" y="253" text-anchor="middle">风机 / 光伏 / 储能 / 巡检</text>
  <rect class="box" x="1058" y="199" width="470" height="62" rx="8"/>
  <text class="h2" x="1293" y="235" text-anchor="middle">大屏展示</text>
  <text class="small" x="1293" y="253" text-anchor="middle">总览 / 态势 / 告警 / 指标</text>

  <rect class="group" x="286" y="302" width="1338" height="178" rx="12"/>
  <rect class="box2" x="302" y="330" width="246" height="120" rx="10"/>
  <text class="h1" x="425" y="360" text-anchor="middle">场景构建与运行</text>
  <text class="body" x="425" y="392" text-anchor="middle">场景对象</text>
  <text class="body" x="425" y="416" text-anchor="middle">空间对象</text>
  <text class="body" x="425" y="440" text-anchor="middle">坐标原点 / 构建报告</text>

  <rect class="box2" x="566" y="330" width="246" height="120" rx="10"/>
  <text class="h1" x="689" y="360" text-anchor="middle">孪生体业务</text>
  <text class="body" x="689" y="392" text-anchor="middle">孪生体对象</text>
  <text class="body" x="689" y="416" text-anchor="middle">图元绑定 / 编码标识</text>
  <text class="body" x="689" y="440" text-anchor="middle">接口绑定 / 运行通道</text>

  <rect class="box2" x="830" y="330" width="246" height="120" rx="10"/>
  <text class="h1" x="953" y="360" text-anchor="middle">运行监测业务</text>
  <text class="body" x="953" y="392" text-anchor="middle">风机状态</text>
  <text class="body" x="953" y="416" text-anchor="middle">异常提示 / 实时刷新</text>
  <text class="body" x="953" y="440" text-anchor="middle">属性详情 / 链路健康</text>

  <rect class="box2" x="1094" y="330" width="246" height="120" rx="10"/>
  <text class="h1" x="1217" y="360" text-anchor="middle">指标与分析业务</text>
  <text class="body" x="1217" y="392" text-anchor="middle">功率 / 发电量</text>
  <text class="body" x="1217" y="416" text-anchor="middle">风速 / 风向 / 可利用率</text>
  <text class="body" x="1217" y="440" text-anchor="middle">设备健康度 / 专题分析</text>

  <rect class="box2" x="1358" y="330" width="250" height="120" rx="10"/>
  <text class="h1" x="1483" y="360" text-anchor="middle">治理运维业务</text>
  <text class="body" x="1483" y="392" text-anchor="middle">接口纳管</text>
  <text class="body" x="1483" y="416" text-anchor="middle">异常定位 / 自动化测试</text>
  <text class="body" x="1483" y="440" text-anchor="middle">数据运维支撑</text>

  <path class="line" d="M617 280 L617 296"/>
  <path class="line" d="M1293 280 L1293 296"/>

  <rect class="group" x="286" y="502" width="962" height="286" rx="12"/>
  <text class="h1" x="767" y="536" text-anchor="middle">数字孪生基座核心平台</text>

  <rect class="box" x="304" y="560" width="218" height="74" rx="10"/>
  <text class="h2" x="413" y="589" text-anchor="middle">场景对象管理</text>
  <text class="small" x="413" y="613" text-anchor="middle">场景对象 / 原点配置</text>

  <rect class="box" x="540" y="560" width="218" height="74" rx="10"/>
  <text class="h2" x="649" y="589" text-anchor="middle">空间资源管理</text>
  <text class="small" x="649" y="613" text-anchor="middle">空间点位 / 层级 / 位置表达</text>

  <rect class="box" x="776" y="560" width="218" height="74" rx="10"/>
  <text class="h2" x="885" y="589" text-anchor="middle">孪生体管理</text>
  <text class="small" x="885" y="613" text-anchor="middle">对象 / 类型 / 绑定 / 消费视图</text>

  <rect class="box" x="1012" y="560" width="218" height="74" rx="10"/>
  <text class="h2" x="1121" y="589" text-anchor="middle">图元资源管理</text>
  <text class="small" x="1121" y="613" text-anchor="middle">资源 URL / 模型维护 / 表现引用</text>

  <rect class="box" x="304" y="662" width="218" height="74" rx="10"/>
  <text class="h2" x="413" y="691" text-anchor="middle">编码标识管理</text>
  <text class="small" x="413" y="715" text-anchor="middle">对象标识 / 映射锚点</text>

  <rect class="box" x="540" y="662" width="218" height="74" rx="10"/>
  <text class="h2" x="649" y="691" text-anchor="middle">接口治理模块</text>
  <text class="small" x="649" y="715" text-anchor="middle">接口资源 / 样例 / 协同上下文</text>

  <rect class="box" x="776" y="662" width="218" height="74" rx="10"/>
  <text class="h2" x="885" y="691" text-anchor="middle">三维引擎接口</text>
  <text class="small" x="885" y="715" text-anchor="middle">构建 / 运行 / 回传</text>

  <rect class="box" x="1012" y="662" width="218" height="74" rx="10"/>
  <text class="h2" x="1121" y="691" text-anchor="middle">数据血缘与审计</text>
  <text class="small" x="1121" y="715" text-anchor="middle">链路追踪 / 审计留痕</text>

  <rect class="group" x="1268" y="502" width="356" height="286" rx="12"/>
  <text class="h1" x="1446" y="536" text-anchor="middle">运行接入与运维支撑</text>

  <rect class="box2" x="1288" y="560" width="316" height="74" rx="10"/>
  <text class="h2" x="1446" y="589" text-anchor="middle">孪生体数据接入服务</text>
  <text class="small" x="1446" y="613" text-anchor="middle">HTTP / MQTT / WebSocket / Kafka</text>

  <rect class="box2" x="1288" y="662" width="150" height="74" rx="10"/>
  <text class="h2" x="1363" y="691" text-anchor="middle">运行消费机制</text>
  <text class="small" x="1363" y="715" text-anchor="middle">启动 / 订阅 / 快照 / 停止</text>

  <rect class="box2" x="1454" y="662" width="150" height="74" rx="10"/>
  <text class="h2" x="1529" y="691" text-anchor="middle">指标转换平台</text>
  <text class="small" x="1529" y="715" text-anchor="middle">标准结果转指标明细</text>

  <rect class="box2" x="1288" y="748" width="316" height="30" rx="8"/>
  <text class="small" x="1446" y="768" text-anchor="middle">接口自动化测试 / 数据运维平台 / 异常回流定位</text>

  <path class="line" d="M413 486 L413 498"/>
  <path class="line" d="M649 486 L649 498"/>
  <path class="line" d="M885 486 L885 498"/>
  <path class="line" d="M1121 486 L1121 498"/>
  <path class="line" d="M1446 486 L1446 498"/>

  <rect class="darkBand" x="286" y="812" width="1338" height="48" rx="8"/>
  <text class="title" x="955" y="846" text-anchor="middle" style="font-size:22px;">冀北风光储数字孪生数据基座</text>

  <rect class="group" x="286" y="892" width="650" height="202" rx="12"/>
  <text class="h1" x="611" y="922" text-anchor="middle">对接平台</text>
  <rect class="box" x="306" y="950" width="190" height="74" rx="8"/>
  <text class="body" x="401" y="982" text-anchor="middle">智能化厂级监控</text>
  <text class="body" x="401" y="1006" text-anchor="middle">信息基础平台</text>
  <rect class="box" x="521" y="950" width="190" height="74" rx="8"/>
  <text class="body" x="616" y="982" text-anchor="middle">智能巡视系统</text>
  <text class="small" x="616" y="1006" text-anchor="middle">视频监控 / 巡检信息</text>
  <rect class="box" x="736" y="950" width="190" height="74" rx="8"/>
  <text class="body" x="831" y="982" text-anchor="middle">安全监管系统</text>
  <text class="small" x="831" y="1006" text-anchor="middle">安全业务与状态信息</text>

  <rect class="group" x="956" y="892" width="668" height="202" rx="12"/>
  <text class="h1" x="1290" y="912" text-anchor="middle">主要数据来源</text>
  <rect class="box" x="976" y="950" width="128" height="38" rx="8"/>
  <text class="body" x="1040" y="975" text-anchor="middle">实时采集</text>
  <rect class="box" x="1118" y="950" width="486" height="38" rx="8"/>
  <text class="body" x="1361" y="975" text-anchor="middle">智能化厂级监控信息基础平台</text>
  <rect class="box" x="976" y="1000" width="128" height="38" rx="8"/>
  <text class="body" x="1040" y="1025" text-anchor="middle">设备数据</text>
  <rect class="box" x="1118" y="1000" width="486" height="38" rx="8"/>
  <text class="small" x="1361" y="1024" text-anchor="middle">智能化厂级监控信息基础平台 / 安全监管系统 / 智能巡视系统</text>
  <rect class="box" x="976" y="1050" width="128" height="38" rx="8"/>
  <text class="body" x="1040" y="1075" text-anchor="middle">视频监控</text>
  <rect class="box" x="1118" y="1050" width="486" height="38" rx="8"/>
  <text class="body" x="1361" y="1075" text-anchor="middle">智能巡视系统</text>

  <path class="line" d="M825 862 L825 886"/>
  <path class="line" d="M1446 862 L1446 886"/>
</svg>
