<svg xmlns="http://www.w3.org/2000/svg" width="1200" height="1480" viewBox="0 0 1200 1480">
  <defs>
    <linearGradient id="topBar" x1="0%" y1="0%" x2="100%" y2="0%">
      <stop offset="0%" stop-color="#184f9e"/>
      <stop offset="48%" stop-color="#1f5fae"/>
      <stop offset="100%" stop-color="#2ca9c9"/>
    </linearGradient>
    <filter id="shadow" x="-20%" y="-20%" width="140%" height="140%">
      <feDropShadow dx="0" dy="8" stdDeviation="10" flood-color="#9fb6c8" flood-opacity="0.22"/>
    </filter>
    <marker id="arrow" markerWidth="12" markerHeight="12" refX="9" refY="6" orient="auto">
      <path d="M0,0 L12,6 L0,12 z" fill="#6b7280"/>
    </marker>
    <style>
      .bg { fill: #f3f7fb; }
      .panel { fill: #ffffff; stroke: #cfd9e6; stroke-width: 2; }
      .frame { fill: #fbfdff; stroke: #d7e1eb; stroke-width: 2; }
      .outer { fill: #fbfeff; stroke: #38a9c6; stroke-width: 2; rx: 14; ry: 14; }
      .inner { fill: #ffffff; stroke: #2ca9c9; stroke-width: 2; rx: 10; ry: 10; }
      .title { font: 700 28px "Microsoft YaHei", "PingFang SC", Arial, sans-serif; fill: #ffffff; }
      .layerTitle { font: 700 22px "Microsoft YaHei", "PingFang SC", Arial, sans-serif; fill: #111827; }
      .body { font: 600 17px "Microsoft YaHei", "PingFang SC", Arial, sans-serif; fill: #1f2937; }
      .line { stroke: #6b7280; stroke-width: 3; fill: none; marker-end: url(#arrow); }
    </style>
  </defs>

  <rect class="bg" x="0" y="0" width="1200" height="1480"/>

  <rect class="panel" x="86" y="52" width="1028" height="1378" rx="38" filter="url(#shadow)"/>
  <rect x="126" y="72" width="948" height="74" fill="url(#topBar)"/>
  <text class="title" x="168" y="118">平台运维监控四层体系图</text>

  <rect class="frame" x="126" y="146" width="948" height="1236"/>

  <rect class="outer" x="180" y="186" width="840" height="220"/>
  <text class="layerTitle" x="600" y="232" text-anchor="middle">① 基础设施</text>
  <rect class="inner" x="286" y="256" width="628" height="112"/>
  <text class="body" x="600" y="304" text-anchor="middle">CPU / 内存 / 磁盘 / 网络 / 容器健康</text>
  <text class="body" x="600" y="340" text-anchor="middle">Kafka / Redis / Postgres / 连接池</text>

  <path class="line" d="M600 406 L600 468"/>

  <rect class="outer" x="180" y="492" width="840" height="220"/>
  <text class="layerTitle" x="600" y="538" text-anchor="middle">② APM</text>
  <rect class="inner" x="286" y="562" width="628" height="112"/>
  <text class="body" x="600" y="610" text-anchor="middle">分布式追踪（HTTP / Kafka）</text>
  <text class="body" x="600" y="646" text-anchor="middle">慢查询 / 内存 / 线程 / GC</text>

  <path class="line" d="M600 712 L600 774"/>

  <rect class="outer" x="180" y="798" width="840" height="220"/>
  <text class="layerTitle" x="600" y="844" text-anchor="middle">③ 安全审计</text>
  <rect class="inner" x="286" y="868" width="628" height="112"/>
  <text class="body" x="600" y="916" text-anchor="middle">登录审计 / 操作审计 / 数据访问审计</text>
  <text class="body" x="600" y="952" text-anchor="middle">权限变更审计 / 异常行为留痕</text>

  <path class="line" d="M600 1018 L600 1080"/>

  <rect class="outer" x="180" y="1104" width="840" height="220"/>
  <text class="layerTitle" x="600" y="1150" text-anchor="middle">④ 业务健康</text>
  <rect class="inner" x="286" y="1174" width="628" height="112"/>
  <text class="body" x="600" y="1222" text-anchor="middle">设备在线率 / 数据完整率 / API 可用性</text>
  <text class="body" x="600" y="1258" text-anchor="middle">告警风暴检测 / 数据接入链路健康</text>
</svg>
