<svg xmlns="http://www.w3.org/2000/svg" width="1800" height="1420" viewBox="0 0 1800 1420">
  <defs>
    <linearGradient id="topBar" x1="0%" y1="0%" x2="100%" y2="0%">
      <stop offset="0%" stop-color="#184f9e"/>
      <stop offset="48%" stop-color="#1f5fae"/>
      <stop offset="100%" stop-color="#2ca9c9"/>
    </linearGradient>
    <linearGradient id="bandBlue" x1="0%" y1="0%" x2="100%" y2="0%">
      <stop offset="0%" stop-color="#174f9d"/>
      <stop offset="100%" stop-color="#2e9fc4"/>
    </linearGradient>
    <filter id="shadow" x="-20%" y="-20%" width="140%" height="140%">
      <feDropShadow dx="0" dy="8" stdDeviation="10" flood-color="#9fb6c8" flood-opacity="0.24"/>
    </filter>
    <marker id="arrow" markerWidth="12" markerHeight="12" refX="10" refY="6" orient="auto">
      <path d="M0,0 L12,6 L0,12 Z" fill="#4b5563"/>
    </marker>
    <style>
      .bg { fill: #f3f7fb; }
      .panel { fill: #ffffff; stroke: #cfd9e6; stroke-width: 2; }
      .frame { fill: #fbfdff; stroke: #d7e1eb; stroke-width: 2; }
      .layer { fill: #fefefe; stroke: #d5e0ea; stroke-width: 2; }
      .layerLabel { fill: url(#bandBlue); stroke: #174f9d; stroke-width: 1.5; }
      .layerTitle { font: 700 24px "Microsoft YaHei", "PingFang SC", Arial, sans-serif; fill: #ffffff; }
      .title { font: 700 28px "Microsoft YaHei", "PingFang SC", Arial, sans-serif; fill: #ffffff; }
      .moduleBox { fill: #ffffff; stroke: #31a8c9; stroke-width: 2; }
      .moduleTitle { font: 700 18px "Microsoft YaHei", "PingFang SC", Arial, sans-serif; fill: #1f2937; }
      .moduleBody { font: 500 15px "Microsoft YaHei", "PingFang SC", Arial, sans-serif; fill: #475569; }
      .platformCore { fill: #f6fbff; stroke: #2c97c2; stroke-width: 2.5; }
      .supportBox { fill: #f9fcff; stroke: #5aa7c7; stroke-width: 2; }
      .collectBox { fill: #fdfdf8; stroke: #5aa7c7; stroke-width: 2; }
      .summaryBox { fill: #edf5ff; stroke: #8bb9e2; stroke-width: 2; }
      .pathLabel { font: 600 15px "Microsoft YaHei", "PingFang SC", Arial, sans-serif; fill: #475569; }
      .summaryTitle { font: 700 17px "Microsoft YaHei", "PingFang SC", Arial, sans-serif; fill: #1f2937; }
      .summaryText { font: 500 15px "Microsoft YaHei", "PingFang SC", Arial, sans-serif; fill: #475569; }
    </style>
  </defs>

  <rect class="bg" x="0" y="0" width="1800" height="1420"/>

  <rect class="panel" x="72" y="42" width="1656" height="1336" rx="38" filter="url(#shadow)"/>
  <rect x="112" y="62" width="1576" height="74" fill="url(#topBar)"/>
  <text class="title" x="154" y="108">冀北风光储数字孪生基座完整系统架构图</text>

  <rect class="frame" x="112" y="136" width="1576" height="1198"/>

  <rect class="layer" x="176" y="178" width="1448" height="126" rx="18"/>
  <rect class="layerLabel" x="146" y="202" width="148" height="78" rx="12"/>
  <text class="layerTitle" x="220" y="236" text-anchor="middle">展示层</text>
  <text class="layerTitle" x="220" y="266" text-anchor="middle" font-size="16">Display</text>

  <rect class="moduleBox" x="412" y="212" width="430" height="58" rx="12"/>
  <text class="moduleTitle" x="627" y="248" text-anchor="middle">三维引擎场景</text>

  <rect class="moduleBox" x="958" y="212" width="430" height="58" rx="12"/>
  <text class="moduleTitle" x="1173" y="248" text-anchor="middle">大屏展示</text>

  <rect class="layer" x="176" y="356" width="1448" height="182" rx="18"/>
  <rect class="layerLabel" x="146" y="393" width="148" height="108" rx="12"/>
  <text class="layerTitle" x="220" y="438" text-anchor="middle">业务应用层</text>
  <text class="layerTitle" x="220" y="472" text-anchor="middle" font-size="16">Business</text>

  <rect class="moduleBox" x="344" y="394" width="236" height="104" rx="12"/>
  <text class="moduleTitle" x="462" y="434" text-anchor="middle">场景构建与运行</text>
  <text class="moduleBody" x="462" y="466" text-anchor="middle">构建初始化 / 运行消费</text>

  <rect class="moduleBox" x="608" y="394" width="236" height="104" rx="12"/>
  <text class="moduleTitle" x="726" y="434" text-anchor="middle">孪生体业务</text>
  <text class="moduleBody" x="726" y="466" text-anchor="middle">对象驱动 / 接口绑定 / 运行通道</text>

  <rect class="moduleBox" x="872" y="394" width="236" height="104" rx="12"/>
  <text class="moduleTitle" x="990" y="434" text-anchor="middle">运行监测业务</text>
  <text class="moduleBody" x="990" y="466" text-anchor="middle">状态展示 / 异常告警</text>

  <rect class="moduleBox" x="1136" y="394" width="236" height="104" rx="12"/>
  <text class="moduleTitle" x="1254" y="434" text-anchor="middle">指标与分析业务</text>
  <text class="moduleBody" x="1254" y="466" text-anchor="middle">指标计算 / 专题分析</text>

  <rect class="moduleBox" x="1400" y="394" width="180" height="104" rx="12"/>
  <text class="moduleTitle" x="1490" y="434" text-anchor="middle">运维管理业务</text>
  <text class="moduleBody" x="1490" y="466" text-anchor="middle">工单 / 门户 / 报表</text>

  <rect class="layer" x="176" y="592" width="1448" height="272" rx="18"/>
  <rect class="layerLabel" x="146" y="674" width="148" height="108" rx="12"/>
  <text class="layerTitle" x="220" y="719" text-anchor="middle">平台能力层</text>
  <text class="layerTitle" x="220" y="753" text-anchor="middle" font-size="16">Platform</text>

  <rect class="platformCore" x="332" y="622" width="1240" height="212" rx="16"/>
  <text class="moduleTitle" x="952" y="660" text-anchor="middle" font-size="22">数字孪生数据基座核心平台</text>

  <rect class="moduleBox" x="372" y="684" width="246" height="58" rx="12"/>
  <text class="moduleTitle" x="495" y="720" text-anchor="middle">场景对象管理</text>

  <rect class="moduleBox" x="652" y="684" width="246" height="58" rx="12"/>
  <text class="moduleTitle" x="775" y="720" text-anchor="middle">空间资源管理</text>

  <rect class="moduleBox" x="932" y="684" width="246" height="58" rx="12"/>
  <text class="moduleTitle" x="1055" y="720" text-anchor="middle">孪生体管理</text>

  <rect class="moduleBox" x="1212" y="684" width="320" height="58" rx="12"/>
  <text class="moduleTitle" x="1372" y="720" text-anchor="middle">图元资源管理</text>

  <rect class="moduleBox" x="372" y="762" width="246" height="58" rx="12"/>
  <text class="moduleTitle" x="495" y="798" text-anchor="middle">编码标识管理</text>

  <rect class="moduleBox" x="652" y="762" width="246" height="58" rx="12"/>
  <text class="moduleTitle" x="775" y="798" text-anchor="middle">三维引擎接口</text>

  <rect class="moduleBox" x="932" y="762" width="246" height="58" rx="12"/>
  <text class="moduleTitle" x="1055" y="798" text-anchor="middle">数据接入服务</text>

  <rect class="moduleBox" x="1212" y="762" width="320" height="58" rx="12"/>
  <text class="moduleTitle" x="1372" y="798" text-anchor="middle">指标转换平台</text>

  <rect class="layer" x="176" y="916" width="1448" height="166" rx="18"/>
  <rect class="layerLabel" x="146" y="945" width="148" height="108" rx="12"/>
  <text class="layerTitle" x="220" y="990" text-anchor="middle">治理与运维</text>
  <text class="layerTitle" x="220" y="1024" text-anchor="middle" font-size="16">Support</text>

  <rect class="supportBox" x="334" y="956" width="196" height="84" rx="12"/>
  <text class="moduleTitle" x="432" y="990" text-anchor="middle">数据治理</text>
  <text class="moduleBody" x="432" y="1018" text-anchor="middle">主数据 / 元数据</text>

  <rect class="supportBox" x="556" y="956" width="196" height="84" rx="12"/>
  <text class="moduleTitle" x="654" y="990" text-anchor="middle">数据血缘</text>
  <text class="moduleBody" x="654" y="1018" text-anchor="middle">链路追溯 / 依赖关系</text>

  <rect class="supportBox" x="778" y="956" width="196" height="84" rx="12"/>
  <text class="moduleTitle" x="876" y="990" text-anchor="middle">数据质量</text>
  <text class="moduleBody" x="876" y="1018" text-anchor="middle">完整性 / 时效性 / 异常值</text>

  <rect class="supportBox" x="1000" y="956" width="196" height="84" rx="12"/>
  <text class="moduleTitle" x="1098" y="990" text-anchor="middle">平台运维监控</text>
  <text class="moduleBody" x="1098" y="1018" text-anchor="middle">基础设施 / APM / 健康度</text>

  <rect class="supportBox" x="1222" y="956" width="164" height="84" rx="12"/>
  <text class="moduleTitle" x="1304" y="990" text-anchor="middle">安全审计</text>
  <text class="moduleBody" x="1304" y="1018" text-anchor="middle">登录 / 操作 / 访问</text>

  <rect class="supportBox" x="1412" y="956" width="168" height="84" rx="12"/>
  <text class="moduleTitle" x="1496" y="984" text-anchor="middle">接口治理与</text>
  <text class="moduleTitle" x="1496" y="1012" text-anchor="middle">自动化测试</text>

  <rect class="layer" x="176" y="1130" width="1448" height="126" rx="18"/>
  <rect class="layerLabel" x="146" y="1154" width="148" height="78" rx="12"/>
  <text class="layerTitle" x="220" y="1188" text-anchor="middle">数据与采集</text>
  <text class="layerTitle" x="220" y="1218" text-anchor="middle" font-size="16">Collection</text>

  <rect class="collectBox" x="330" y="1162" width="270" height="62" rx="12"/>
  <text class="moduleTitle" x="465" y="1200" text-anchor="middle">智能化厂级监控信息基础平台</text>

  <rect class="collectBox" x="632" y="1162" width="240" height="62" rx="12"/>
  <text class="moduleTitle" x="752" y="1200" text-anchor="middle">智能巡视系统</text>

  <rect class="collectBox" x="904" y="1162" width="220" height="62" rx="12"/>
  <text class="moduleTitle" x="1014" y="1200" text-anchor="middle">安全监管系统</text>

  <rect class="collectBox" x="1156" y="1162" width="180" height="62" rx="12"/>
  <text class="moduleTitle" x="1246" y="1200" text-anchor="middle">实时采集</text>

  <rect class="collectBox" x="1368" y="1162" width="104" height="62" rx="12"/>
  <text class="moduleTitle" x="1420" y="1200" text-anchor="middle">设备数据</text>

  <rect class="collectBox" x="1498" y="1162" width="90" height="62" rx="12"/>
  <text class="moduleTitle" x="1543" y="1200" text-anchor="middle">视频监控</text>

  <rect class="summaryBox" x="330" y="1278" width="980" height="36" rx="10"/>
  <text class="pathLabel" x="820" y="1302" text-anchor="middle">主链路：采集与业务数据 → 数据接入与平台能力 → 业务应用编排与运行 → 三维引擎场景 / 大屏展示</text>

  <rect class="summaryBox" x="1340" y="1268" width="260" height="58" rx="10"/>
  <text class="summaryTitle" x="1470" y="1292" text-anchor="middle">部署环境摘要</text>
  <text class="summaryText" x="1470" y="1314" text-anchor="middle">中心云 / 场站边缘 / 设备层</text>

  <line x1="900" y1="304" x2="900" y2="350" stroke="#4b5563" stroke-width="3" marker-end="url(#arrow)"/>
  <line x1="900" y1="538" x2="900" y2="586" stroke="#4b5563" stroke-width="3" marker-end="url(#arrow)"/>
  <line x1="900" y1="864" x2="900" y2="910" stroke="#4b5563" stroke-width="3" marker-end="url(#arrow)"/>
  <line x1="900" y1="1082" x2="900" y2="1124" stroke="#4b5563" stroke-width="3" marker-end="url(#arrow)"/>
</svg>
